HIERARCHY
ROOT Hips
{
	OFFSET 0.000000 71.427986 0.000000
	CHANNELS 6 Xposition Yposition Zposition Xrotation Yrotation Zrotation
	JOINT Pelvis
	{
		OFFSET 0.000000 0.000000 0.000000
		CHANNELS 3 Xrotation Yrotation Zrotation
		JOINT LeftUpLeg
		{
			OFFSET 6.797100 -2.508499 -1.318700
			CHANNELS 3 Xrotation Yrotation Zrotation
			JOINT LeftLeg
			{
				OFFSET 0.069008 -29.241863 0.690200
				CHANNELS 3 Xrotation Yrotation Zrotation
				JOINT LeftFoot
				{
					OFFSET -0.069008 -29.568123 -0.266800
					CHANNELS 3 Xrotation Yrotation Zrotation
					JOINT LeftToeBase
					{
						OFFSET 3.145500 -8.631000 16.059900
						CHANNELS 3 Xrotation Yrotation Zrotation
						End Site
						{
							OFFSET 0.000000 18.501587 0.000000
						}
					}
				}
			}
			JOINT Left_ShortSleeve
			{
				OFFSET 0.265923 -10.480953 1.153800
				CHANNELS 3 Xrotation Yrotation Zrotation
				End Site
				{
					OFFSET 1.725763 19.823879 0.000000
				}
			}
		}
		JOINT RightUpLeg
		{
			OFFSET -6.797100 -2.508499 -1.318700
			CHANNELS 3 Xrotation Yrotation Zrotation
			JOINT RightLeg
			{
				OFFSET -0.082453 -29.241932 0.688000
				CHANNELS 3 Xrotation Yrotation Zrotation
				JOINT RightFoot
				{
					OFFSET 0.082453 -29.568058 -0.264600
					CHANNELS 3 Xrotation Yrotation Zrotation
					JOINT RightToeBase
					{
						OFFSET -3.115300 -8.682800 16.113400
						CHANNELS 3 Xrotation Yrotation Zrotation
						End Site
						{
							OFFSET 0.000000 18.567114 0.000000
						}
					}
				}
			}
			JOINT Right_ShortSleeve
			{
				OFFSET -0.265923 -10.480953 1.153800
				CHANNELS 3 Xrotation Yrotation Zrotation
				End Site
				{
					OFFSET -1.725766 19.823910 0.000000
				}
			}
		}
	}
	JOINT Spine
	{
		OFFSET 0.000000 13.368103 0.470500
		CHANNELS 3 Xrotation Yrotation Zrotation
		JOINT Spine1
		{
			OFFSET 0.147000 13.837402 0.538800
			CHANNELS 3 Xrotation Yrotation Zrotation
			JOINT Spine2
			{
				OFFSET 0.168000 16.242897 -1.435500
				CHANNELS 3 Xrotation Yrotation Zrotation
				JOINT Neck
				{
					OFFSET 0.217200 18.631500 -1.679100
					CHANNELS 3 Xrotation Yrotation Zrotation
					JOINT Head
					{
						OFFSET 0.000000 6.599396 1.385900
						CHANNELS 3 Xrotation Yrotation Zrotation
						JOINT Hat
						{
							OFFSET -0.532200 27.220596 -10.096100
							CHANNELS 3 Xrotation Yrotation Zrotation
							End Site
							{
								OFFSET 0.000000 22.029861 0.000000
							}
						}
						JOINT HairD
						{
							OFFSET -10.777400 17.437393 -1.325900
							CHANNELS 3 Xrotation Yrotation Zrotation
							JOINT HairD1
							{
								OFFSET -3.290299 -11.051193 1.062200
								CHANNELS 3 Xrotation Yrotation Zrotation
								End Site
								{
									OFFSET 0.000000 11.579437 0.000000
								}
							}
						}
						JOINT HairB
						{
							OFFSET -10.777400 17.437393 1.467900
							CHANNELS 3 Xrotation Yrotation Zrotation
							JOINT HairB1
							{
								OFFSET -1.561200 -12.956299 3.590200
								CHANNELS 3 Xrotation Yrotation Zrotation
								End Site
								{
									OFFSET 0.000000 13.534866 0.000000
								}
							}
						}
						JOINT HairA
						{
							OFFSET 9.713100 17.437393 1.467900
							CHANNELS 3 Xrotation Yrotation Zrotation
							JOINT HairA1
							{
								OFFSET 1.561200 -12.956299 3.590200
								CHANNELS 3 Xrotation Yrotation Zrotation
								End Site
								{
									OFFSET 0.000000 13.534866 0.000000
								}
							}
						}
						JOINT HairC
						{
							OFFSET 9.713100 17.437393 -1.325900
							CHANNELS 3 Xrotation Yrotation Zrotation
							JOINT HairC1
							{
								OFFSET 3.290300 -11.051193 1.062200
								CHANNELS 3 Xrotation Yrotation Zrotation
								End Site
								{
									OFFSET 0.000000 11.579437 0.000000
								}
							}
						}
					}
				}
				JOINT LeftShoulder
				{
					OFFSET 5.101800 15.108002 -2.763700
					CHANNELS 3 Xrotation Yrotation Zrotation
					JOINT LeftArm
					{
						OFFSET 9.825497 2.506317 -1.597400
						CHANNELS 3 Xrotation Yrotation Zrotation
						JOINT LeftForeArm
						{
							OFFSET 21.966244 0.000000 0.000000
							CHANNELS 3 Xrotation Yrotation Zrotation
							JOINT LeftHand
							{
								OFFSET 33.879036 0.000000 0.000000
								CHANNELS 3 Xrotation Yrotation Zrotation
								JOINT LeftHandThumb1
								{
									OFFSET 6.715286 -2.359680 3.363841
									CHANNELS 3 Xrotation Yrotation Zrotation
									JOINT LeftHandThumb2
									{
										OFFSET 2.507072 -1.447464 1.447461
										CHANNELS 3 Xrotation Yrotation Zrotation
										JOINT LeftHandThumb3
										{
											OFFSET 2.898338 -1.673355 1.673357
											CHANNELS 3 Xrotation Yrotation Zrotation
											End Site
											{
												OFFSET -0.295959 3.727692 -0.131651
											}
										}
									}
								}
								JOINT LeftHandIndex1
								{
									OFFSET 14.190811 -0.254547 3.840278
									CHANNELS 3 Xrotation Yrotation Zrotation
									JOINT LeftHandIndex2
									{
										OFFSET 3.551727 0.000000 -0.000000
										CHANNELS 3 Xrotation Yrotation Zrotation
										JOINT LeftHandIndex3
										{
											OFFSET 2.894196 0.000000 0.000000
											CHANNELS 3 Xrotation Yrotation Zrotation
											End Site
											{
												OFFSET -1.000603 2.690872 0.366626
											}
										}
									}
								}
								JOINT LeftHandMiddle1
								{
									OFFSET 13.776489 0.000000 0.000000
									CHANNELS 3 Xrotation Yrotation Zrotation
									JOINT LeftHandMiddle2
									{
										OFFSET 3.438232 0.000000 0.000000
										CHANNELS 3 Xrotation Yrotation Zrotation
										JOINT LeftHandMiddle3
										{
											OFFSET 3.691551 0.000000 0.000000
											CHANNELS 3 Xrotation Yrotation Zrotation
											End Site
											{
												OFFSET -1.082298 3.499527 0.457670
											}
										}
									}
								}
								JOINT LeftHandRing1
								{
									OFFSET 13.966164 -0.268127 -3.067488
									CHANNELS 3 Xrotation Yrotation Zrotation
									JOINT LeftHandRing2
									{
										OFFSET 3.162567 0.000000 0.000000
										CHANNELS 3 Xrotation Yrotation Zrotation
										JOINT LeftHandRing3
										{
											OFFSET 3.324348 0.000000 0.000000
											CHANNELS 3 Xrotation Yrotation Zrotation
											End Site
											{
												OFFSET -0.861900 3.184998 0.405154
											}
										}
									}
								}
								JOINT LeftHandPinky1
								{
									OFFSET 13.131393 -0.168503 -5.746925
									CHANNELS 3 Xrotation Yrotation Zrotation
									JOINT LeftHandPinky2
									{
										OFFSET 2.849182 0.000000 0.000000
										CHANNELS 3 Xrotation Yrotation Zrotation
										JOINT LeftHandPinky3
										{
											OFFSET 2.805038 0.000000 0.000000
											CHANNELS 3 Xrotation Yrotation Zrotation
											End Site
											{
												OFFSET -0.882500 2.642609 0.325652
											}
										}
									}
								}
							}
							JOINT Left_Sleeve
							{
								OFFSET 6.592125 -0.646545 0.805568
								CHANNELS 3 Xrotation Yrotation Zrotation
								End Site
								{
									OFFSET -0.000179 20.275787 -0.000000
								}
							}
						}
					}
				}
				JOINT RightShoulder
				{
					OFFSET -5.731700 15.108002 -2.763700
					CHANNELS 3 Xrotation Yrotation Zrotation
					JOINT RightArm
					{
						OFFSET -9.825497 2.506317 -1.597400
						CHANNELS 3 Xrotation Yrotation Zrotation
						JOINT RightForeArm
						{
							OFFSET -21.966242 0.000000 0.000000
							CHANNELS 3 Xrotation Yrotation Zrotation
							JOINT RightHand
							{
								OFFSET -33.879032 0.000000 0.000000
								CHANNELS 3 Xrotation Yrotation Zrotation
								JOINT RightHandThumb1
								{
									OFFSET -6.715286 -2.359680 3.363841
									CHANNELS 3 Xrotation Yrotation Zrotation
									JOINT RightHandThumb2
									{
										OFFSET -2.507072 -1.447464 1.447461
										CHANNELS 3 Xrotation Yrotation Zrotation
										JOINT RightHandThumb3
										{
											OFFSET -2.898338 -1.673355 1.673357
											CHANNELS 3 Xrotation Yrotation Zrotation
											End Site
											{
												OFFSET 0.295959 3.727692 -0.131651
											}
										}
									}
								}
								JOINT RightHandIndex1
								{
									OFFSET -14.190811 -0.254547 3.840278
									CHANNELS 3 Xrotation Yrotation Zrotation
									JOINT RightHandIndex2
									{
										OFFSET -3.551727 0.000000 -0.000000
										CHANNELS 3 Xrotation Yrotation Zrotation
										JOINT RightHandIndex3
										{
											OFFSET -2.894196 0.000000 0.000000
											CHANNELS 3 Xrotation Yrotation Zrotation
											End Site
											{
												OFFSET 1.000603 2.690872 0.366626
											}
										}
									}
								}
								JOINT RightHandMiddle1
								{
									OFFSET -13.776489 0.000000 0.000000
									CHANNELS 3 Xrotation Yrotation Zrotation
									JOINT RightHandMiddle2
									{
										OFFSET -3.438232 0.000000 0.000000
										CHANNELS 3 Xrotation Yrotation Zrotation
										JOINT RightHandMiddle3
										{
											OFFSET -3.691551 0.000000 0.000000
											CHANNELS 3 Xrotation Yrotation Zrotation
											End Site
											{
												OFFSET 1.082298 3.499527 0.457670
											}
										}
									}
								}
								JOINT RightHandRing1
								{
									OFFSET -13.966164 -0.268127 -3.067488
									CHANNELS 3 Xrotation Yrotation Zrotation
									JOINT RightHandRing2
									{
										OFFSET -3.162567 0.000000 0.000000
										CHANNELS 3 Xrotation Yrotation Zrotation
										JOINT RightHandRing3
										{
											OFFSET -3.324348 0.000000 0.000000
											CHANNELS 3 Xrotation Yrotation Zrotation
											End Site
											{
												OFFSET 0.861900 3.184998 0.405154
											}
										}
									}
								}
								JOINT RightHandPinky1
								{
									OFFSET -13.131393 -0.168503 -5.746925
									CHANNELS 3 Xrotation Yrotation Zrotation
									JOINT RightHandPinky2
									{
										OFFSET -2.849182 0.000000 0.000000
										CHANNELS 3 Xrotation Yrotation Zrotation
										JOINT RightHandPinky3
										{
											OFFSET -2.805038 0.000000 0.000000
											CHANNELS 3 Xrotation Yrotation Zrotation
											End Site
											{
												OFFSET 0.882500 2.642609 0.325652
											}
										}
									}
								}
							}
							JOINT Right_Sleeve
							{
								OFFSET -6.592125 -0.646545 0.805568
								CHANNELS 3 Xrotation Yrotation Zrotation
								End Site
								{
									OFFSET 0.000179 20.275787 -0.000000
								}
							}
						}
					}
				}
				JOINT Bind_Right_JacketString
				{
					OFFSET -3.534800 11.969597 7.200700
					CHANNELS 3 Xrotation Yrotation Zrotation
					JOINT Bind_Right_JacketString1
					{
						OFFSET -0.319900 -6.102600 2.794100
						CHANNELS 3 Xrotation Yrotation Zrotation
						End Site
						{
							OFFSET 0.000000 6.719452 0.000000
						}
					}
				}
				JOINT Bind_Left_JacketString
				{
					OFFSET 2.904800 11.969597 7.200700
					CHANNELS 3 Xrotation Yrotation Zrotation
					JOINT Bind_Left_JacketString1
					{
						OFFSET 0.364800 -5.904503 3.186800
						CHANNELS 3 Xrotation Yrotation Zrotation
						End Site
						{
							OFFSET 0.000000 6.719513 0.000000
						}
					}
				}
				JOINT HairE
				{
					OFFSET 5.915200 17.612701 -11.592200
					CHANNELS 3 Xrotation Yrotation Zrotation
					JOINT HairE1
					{
						OFFSET 0.289200 -7.171898 -1.284500
						CHANNELS 3 Xrotation Yrotation Zrotation
						End Site
						{
							OFFSET 0.000000 7.291756 0.000000
						}
					}
				}
				JOINT HairF
				{
					OFFSET -0.864800 17.612701 -11.592200
					CHANNELS 3 Xrotation Yrotation Zrotation
					JOINT HairF1
					{
						OFFSET 0.000000 -14.087097 -2.127501
						CHANNELS 3 Xrotation Yrotation Zrotation
						End Site
						{
							OFFSET 0.000000 14.246841 0.000000
						}
					}
				}
				JOINT HairG
				{
					OFFSET -8.087700 17.612701 -11.592200
					CHANNELS 3 Xrotation Yrotation Zrotation
					JOINT HairG1
					{
						OFFSET -0.293600 -6.081398 -0.910100
						CHANNELS 3 Xrotation Yrotation Zrotation
						End Site
						{
							OFFSET 0.000000 6.156120 0.000000
						}
					}
				}
			}
		}
	}
	JOINT Pouch
	{
		OFFSET 0.000000 4.394501 10.847300
		CHANNELS 3 Xrotation Yrotation Zrotation
		End Site
		{
			OFFSET 0.000000 21.880577 0.000000
		}
	}
	JOINT Bag
	{
		OFFSET -13.229000 4.813004 -0.593300
		CHANNELS 3 Xrotation Yrotation Zrotation
		End Site
		{
			OFFSET 0.000000 21.880577 0.000000
		}
	}
	JOINT OccupyGuyFacialAnim_Joint
	{
		OFFSET 1.000000 -70.206398 -1.655000
		CHANNELS 3 Xrotation Yrotation Zrotation
		End Site
		{
			OFFSET 0.000000 21.880577 0.000000
		}
	}
}
MOTION
Frames: 4
Frame Time: 0.033333
-0.184434 70.913254 1.292198 -3.753515 -5.225724 -3.476105 0.000000 -0.000000 0.000000 -8.980002 15.119674 9.858951 13.252111 1.945084 4.199911 -1.497416 0.723193 -7.482539 -0.000000 -0.000001 0.000000 0.000001 0.000001 -0.000000 3.965298 -10.246139 4.205849 5.937115 -9.783618 -3.276506 -5.618670 -1.682703 3.138122 0.000000 -0.000000 -0.000000 0.000000 -0.000001 -0.000000 3.301365 1.528900 2.444297 1.146035 0.329156 1.552970 1.123713 0.356192 1.550933 5.622657 -0.077171 0.463898 -7.551144 1.374726 -0.084354 -0.000000 -0.000000 0.000000 -0.000000 -0.000000 0.000000 -0.000000 -0.000000 0.000000 -0.000000 -0.000000 0.000000 -0.000000 -0.000000 0.000000 -0.000000 -0.000000 0.000000 -0.000000 -0.000000 0.000000 -0.000000 -0.000000 0.000000 -0.000000 -0.000000 0.000000 1.046096 -17.446002 -12.316925 3.915538 -19.989496 -69.767705 -0.000002 -1.452709 0.000008 -33.228293 -1.359863 -6.191296 -0.666103 2.158569 4.837383 11.859660 25.414842 17.056649 0.000001 0.000002 -0.000003 0.020433 -0.966545 -7.590924 0.267896 1.752967 -17.376544 0.000003 0.000000 0.000002 -0.077461 2.661822 -15.698684 0.268778 1.755776 -17.405241 -0.000000 0.000000 0.000002 0.137970 3.644568 -21.134829 0.386571 2.094654 -20.910448 0.000002 0.000001 -0.000002 0.923049 5.558215 -27.126870 0.268795 1.755839 -17.405890 -0.000002 -0.000001 0.000001 -0.000003 0.000000 -0.000000 1.189528 15.344121 14.707064 13.162775 27.550886 58.780943 -0.000010 6.689828 0.000007 -20.174736 -0.523595 6.792853 -1.664531 -0.169105 -4.216937 12.708040 -29.838180 -16.127687 -0.000002 -0.000001 0.000001 0.037632 1.264469 6.828354 0.213862 -1.396482 17.412924 0.000002 0.000000 -0.000001 -0.135886 -2.206387 14.998781 0.214469 -1.398409 17.437703 0.000002 -0.000001 0.000001 0.031307 -3.078192 20.463783 0.308443 -1.668284 20.948518 -0.000003 -0.000002 0.000001 0.748322 -4.885959 26.472215 0.214429 -1.398289 17.436013 -0.000000 0.000000 0.000001 0.000001 -0.000000 0.000000 -0.000000 0.000000 -0.000000 -0.000000 0.000000 -0.000000 -0.000000 0.000000 0.000000 -0.000000 0.000000 0.000000 -0.000000 0.000000 -0.000000 -0.000000 0.000000 -0.000000 -0.000000 0.000000 0.000000 -0.000000 0.000000 0.000000 -0.000000 0.000000 -0.000000 -0.000000 0.000000 -0.000000 0.000000 -0.000000 0.000000 0.000000 -0.000000 0.000000 0.000000 -0.000000 0.000000 
-0.314035 70.782249 1.387799 -3.646012 -4.946406 -2.762483 0.000000 -0.000000 0.000000 -9.151572 15.162607 9.305260 13.764855 1.811422 4.193113 -1.793125 0.593708 -7.561165 0.000000 -0.000001 0.000000 -0.000001 0.000001 -0.000000 1.443251 -10.276281 3.211649 10.716028 -9.965682 -3.287933 -8.021250 -2.166833 3.451247 -0.000000 0.000001 0.000000 0.000000 0.000000 -0.000001 3.280922 1.536003 2.008406 1.139331 0.323336 1.431886 1.117762 0.349079 1.430127 5.443769 -0.028001 0.433914 -7.696707 1.507518 -0.085491 0.000000 0.000000 -0.000000 0.000000 0.000000 -0.000000 0.000000 0.000000 -0.000000 0.000000 0.000000 -0.000000 0.000000 0.000000 -0.000000 0.000000 0.000000 -0.000000 0.000000 0.000000 -0.000000 0.000000 0.000000 -0.000000 0.000000 0.000000 -0.000000 1.044890 -17.434264 -12.335469 4.054021 -19.041642 -69.192651 -0.000007 -1.990473 0.000020 -31.321888 -1.537036 -6.234063 -0.651215 1.875050 4.925250 11.670085 24.360877 16.285766 0.000000 0.000002 0.000003 0.138415 -1.050506 -6.844900 0.299472 1.850803 -18.380679 0.000002 0.000000 0.000002 -0.069268 2.753716 -16.454539 0.324430 1.924246 -19.138359 0.000000 0.000001 -0.000001 0.153128 3.767203 -23.117697 0.424116 2.190327 -21.914725 0.000001 -0.000000 -0.000003 0.793332 5.791018 -28.840289 0.328380 1.935593 -19.255727 -0.000000 -0.000001 0.000003 -0.000001 -0.000000 -0.000001 1.202621 15.299306 14.632121 12.909529 26.615391 58.622120 -0.000000 6.619670 0.000009 -18.520126 -0.328507 6.777630 -1.664532 -0.169109 -4.216929 12.708045 -29.838399 -16.127745 0.000004 -0.000001 0.000001 0.035971 1.145471 8.182959 0.270814 -1.566494 19.615554 -0.000002 0.000002 0.000001 -0.135868 -2.308391 16.180030 0.268972 -1.561326 19.548012 -0.000001 0.000001 0.000003 0.051287 -3.175090 21.503539 0.375783 -1.834464 23.151696 -0.000001 0.000001 0.000002 0.816636 -4.952988 27.545634 0.269224 -1.562047 19.557366 -0.000004 0.000004 0.000003 -0.000001 0.000000 0.000001 -0.000000 0.000000 -0.000000 -0.000000 -0.000000 -0.000000 -0.000000 0.000000 0.000000 -0.000000 0.000000 0.000000 -0.000000 0.000000 -0.000000 -0.000000 -0.000000 -0.000000 -0.000000 0.000000 0.000000 -0.000000 0.000000 0.000000 -0.000000 0.000000 -0.000000 -0.000000 -0.000000 -0.000000 0.000000 -0.000000 0.000000 0.000000 -0.000000 0.000000 0.000000 -0.000000 0.000000 
-0.454928 70.650894 1.497544 -3.579278 -4.644405 -2.028141 -0.000000 0.000000 0.000000 -9.276459 15.258270 8.748256 14.271284 1.688004 4.183219 -2.084485 0.384788 -7.653209 0.000000 -0.000001 0.000000 -0.000000 0.000002 -0.000000 -0.330110 -10.277492 2.329034 14.144989 -9.969817 -3.305626 -9.755879 -2.846990 3.697460 -0.000000 -0.000000 0.000000 -0.000000 0.000002 -0.000000 3.274804 1.530635 1.578437 1.131476 0.314762 1.304184 1.110755 0.339018 1.302707 5.401889 0.040341 0.391037 -7.964705 1.715749 -0.111825 -0.000000 -0.000000 -0.000000 -0.000000 -0.000000 -0.000000 -0.000000 -0.000000 -0.000000 -0.000000 -0.000000 -0.000000 -0.000000 -0.000000 -0.000000 -0.000000 -0.000000 -0.000000 -0.000000 -0.000000 -0.000000 -0.000000 -0.000000 -0.000000 -0.000000 -0.000000 -0.000000 1.048074 -17.417037 -12.334945 4.146336 -17.965199 -68.618307 -0.000001 -2.588860 -0.000006 -29.180757 -1.677188 -6.347986 -0.637336 1.609407 5.008028 11.473348 23.145290 15.533170 0.000001 0.000001 -0.000001 0.255820 -1.179678 -5.803597 0.326396 1.929916 -19.197065 0.000002 -0.000000 -0.000000 -0.061180 2.826210 -17.025281 0.377235 2.070067 -20.653539 0.000001 -0.000000 -0.000003 0.168815 3.883659 -24.998081 0.455864 2.267594 -22.731056 -0.000000 0.000000 -0.000001 0.677159 6.028117 -30.423312 0.395896 2.118878 -21.164130 0.000001 -0.000000 -0.000002 0.000004 -0.000000 -0.000001 1.207312 15.285991 14.602249 12.739617 25.660748 58.377784 -0.000002 6.632891 -0.000009 -16.778158 -0.034163 6.642812 -1.664539 -0.169304 -4.216879 12.708246 -29.839543 -16.128173 0.000003 -0.000005 -0.000003 0.021887 1.006763 9.796382 0.339021 -1.746017 21.974955 -0.000001 0.000000 0.000000 -0.133996 -2.413023 17.408132 0.330780 -1.725481 21.702941 0.000002 -0.000000 -0.000001 0.076110 -3.273495 22.417099 0.454950 -2.009442 25.511817 0.000001 0.000001 -0.000003 0.885133 -5.017668 28.527433 0.331804 -1.728033 21.736642 -0.000006 0.000001 0.000001 0.000000 -0.000000 0.000000 0.000000 -0.000000 0.000000 0.000000 -0.000000 -0.000000 0.000000 -0.000000 0.000000 0.000000 -0.000000 0.000000 0.000000 -0.000000 0.000000 0.000000 -0.000000 0.000000 0.000000 -0.000000 0.000000 0.000000 -0.000000 0.000000 0.000000 -0.000000 0.000000 0.000000 -0.000000 0.000000 -0.000000 0.000000 0.000000 -0.000000 0.000000 0.000000 -0.000000 0.000000 0.000000 
-0.606112 70.509178 1.619148 -3.548605 -4.343138 -1.238565 0.000000 -0.000000 -0.000000 -9.374550 15.330474 8.150659 14.846989 1.577028 4.171061 -2.386783 0.173383 -7.765048 0.000000 -0.000000 0.000000 0.000001 -0.000001 -0.000000 -1.785116 -10.224800 1.447771 17.047553 -10.017891 -3.314099 -11.310920 -3.440119 3.862211 0.000000 0.000000 -0.000000 -0.000000 -0.000000 -0.000000 3.282621 1.515684 1.119384 1.118399 0.304328 1.170628 1.098622 0.327011 1.169404 5.512697 0.126677 0.337361 -8.350650 2.005099 -0.159789 0.000000 0.000000 0.000000 0.000000 0.000000 0.000000 0.000000 0.000000 0.000000 0.000000 0.000000 -0.000000 0.000000 -0.000000 0.000000 0.000000 0.000000 -0.000000 0.000000 -0.000000 0.000000 0.000000 0.000000 0.000000 0.000000 0.000000 0.000000 1.047187 -17.410489 -12.343668 3.946503 -16.728675 -68.110148 -0.000006 -2.822155 0.000001 -26.806377 -2.117390 -6.481996 -0.624411 1.360808 5.085824 11.269960 21.774356 14.797248 0.000001 -0.000000 -0.000001 0.375559 -1.351231 -4.479578 0.348180 1.991322 -19.833585 0.000002 -0.000000 -0.000000 -0.053845 2.880196 -17.418881 0.425848 2.194630 -21.960132 0.000001 0.000002 -0.000001 0.184853 3.994182 -26.780420 0.481375 2.327511 -23.367510 -0.000001 0.000001 -0.000004 0.573658 6.267671 -31.881721 0.471729 2.305064 -23.128660 -0.000003 -0.000001 0.000003 0.000001 -0.000001 -0.000001 1.201071 15.334424 14.609124 12.655623 24.684063 58.051233 -0.000000 6.733202 -0.000005 -14.827931 0.258571 6.368314 -1.664530 -0.169226 -4.216905 12.708123 -29.838562 -16.128008 -0.000001 0.000000 -0.000001 -0.000506 0.851993 11.625310 0.418947 -1.932227 24.464944 -0.000005 0.000001 -0.000001 -0.130092 -2.519692 18.674458 0.399914 -1.889838 23.893940 0.000000 0.000000 -0.000001 0.105249 -3.372931 23.223765 0.546234 -2.190365 28.002654 0.000004 -0.000003 -0.000000 0.941998 -5.086886 29.430223 0.402247 -1.895117 23.964823 -0.000001 -0.000000 0.000001 0.000000 0.000001 -0.000000 -0.000000 0.000000 0.000000 0.000000 0.000000 0.000000 -0.000000 0.000000 0.000000 -0.000000 0.000000 0.000000 -0.000000 0.000000 0.000000 0.000000 0.000000 0.000000 -0.000000 0.000000 0.000000 -0.000000 0.000000 0.000000 -0.000000 0.000000 0.000000 0.000000 0.000000 0.000000 0.000000 -0.000000 -0.000000 0.000000 -0.000000 -0.000000 0.000000 -0.000000 -0.000000 
